<svg width="22" height="22" viewBox="0 0 22 22" fill="none" xmlns="http://www.w3.org/2000/svg">
<path fill-rule="evenodd" clip-rule="evenodd" d="M2 11C2 10.4477 2.44772 10 3 10H16.17L13.2935 7.11549C12.9048 6.7257 12.9053 6.09474 13.2945 5.70549C13.6841 5.31586 14.3159 5.31586 14.7055 5.70549L20 11L14.7055 16.2945C14.3159 16.6841 13.6841 16.6841 13.2945 16.2945C12.9053 15.9053 12.9048 15.2743 13.2935 14.8845L16.17 12H3C2.44771 12 2 11.5523 2 11Z" fill="black" fill-opacity="0.7"/>
<mask id="mask0" style="mask-type:alpha" maskUnits="userSpaceOnUse" x="2" y="5" width="18" height="12">
<path fill-rule="evenodd" clip-rule="evenodd" d="M2 11C2 10.4477 2.44772 10 3 10H16.17L13.2935 7.11549C12.9048 6.7257 12.9053 6.09474 13.2945 5.70549C13.6841 5.31586 14.3159 5.31586 14.7055 5.70549L20 11L14.7055 16.2945C14.3159 16.6841 13.6841 16.6841 13.2945 16.2945C12.9053 15.9053 12.9048 15.2743 13.2935 14.8845L16.17 12H3C2.44771 12 2 11.5523 2 11Z" fill="white"/>
</mask>
<g mask="url(#mask0)">
<rect width="22" height="22" fill="#FFC001"/>
</g>
</svg>
