<svg width="22" height="22" viewBox="0 0 22 22" fill="none" xmlns="http://www.w3.org/2000/svg">
<path fill-rule="evenodd" clip-rule="evenodd" d="M17.7973 2.81553C17.4069 2.42507 16.7737 2.42509 16.3832 2.81559L15.6761 3.52261L14.9689 2.81557C14.5783 2.42503 13.9452 2.42505 13.5547 2.81556L2.71056 13.6597C2.51307 13.8572 2.40714 14.1284 2.41846 14.4074L2.55698 17.8046C2.57826 18.3248 2.99517 18.7417 3.51546 18.7629L6.91247 18.9015C7.19171 18.913 7.46281 18.8069 7.66031 18.6094L18.5044 7.76531C18.8949 7.3748 18.8949 6.74157 18.5044 6.35111L17.7974 5.64393L18.5044 4.93691C18.8949 4.5464 18.8949 3.91311 18.5044 3.52257L17.7973 2.81553ZM14.9689 5.64397L15.676 6.35108L16.3832 7.05825L8.605 14.8363L6.48368 12.715L14.2619 4.93693L14.9689 5.64397ZM5.06933 14.1293L4.4347 14.764L4.51786 16.8023L6.55602 16.8853L7.19065 16.2507L5.06933 14.1293Z" fill="black"/>
<mask id="mask0_2_423" style="mask-type:alpha" maskUnits="userSpaceOnUse" x="2" y="2" width="17" height="17">
<path fill-rule="evenodd" clip-rule="evenodd" d="M17.7973 2.81553C17.4069 2.42507 16.7737 2.42509 16.3832 2.81559L15.6761 3.52261L14.9689 2.81557C14.5783 2.42503 13.9452 2.42505 13.5547 2.81556L2.71056 13.6597C2.51307 13.8572 2.40714 14.1284 2.41846 14.4074L2.55698 17.8046C2.57826 18.3248 2.99517 18.7417 3.51546 18.7629L6.91247 18.9015C7.19171 18.913 7.46281 18.8069 7.66031 18.6094L18.5044 7.76531C18.8949 7.3748 18.8949 6.74157 18.5044 6.35111L17.7974 5.64393L18.5044 4.93691C18.8949 4.5464 18.8949 3.91311 18.5044 3.52257L17.7973 2.81553ZM14.9689 5.64397L15.676 6.35108L16.3832 7.05825L8.605 14.8363L6.48368 12.715L14.2619 4.93693L14.9689 5.64397ZM5.06933 14.1293L4.4347 14.764L4.51786 16.8023L6.55602 16.8853L7.19065 16.2507L5.06933 14.1293Z" fill="white"/>
</mask>
<g mask="url(#mask0_2_423)">
</g>
</svg>
