<svg width="14" height="18" viewBox="0 0 14 18" fill="none" xmlns="http://www.w3.org/2000/svg">
<path fill-rule="evenodd" clip-rule="evenodd" d="M6.99999 0C9.23687 0 11.0502 1.79089 11.0502 4H11.9749C12.5014 4 12.9401 4.39868 12.9839 4.91699L13.9964 16.917C14.0456 17.5 13.5798 18 12.9874 18H1.01259C0.420229 18 -0.0456261 17.5 0.00356744 16.917L1.01611 4.91699C1.05981 4.39868 1.49853 4 2.02513 4H2.9498C2.9498 1.79089 4.7631 0 6.99999 0ZM4.97489 4H9.02508C9.02508 2.89539 8.11841 2 6.99999 2C5.88158 2 4.97489 2.89539 4.97489 4ZM2.11302 16L2.95685 6H11.0431L11.887 16H2.11302Z" fill="black"/>
</svg>
