<svg width="85" height="19" viewBox="0 0 85 19" fill="none" xmlns="http://www.w3.org/2000/svg">
<path fill-rule="evenodd" clip-rule="evenodd" d="M9.56 15.82C10.64 15.82 11.46 15.56 12.02 15.04L12.84 17.54C12.4933 17.8467 12.0267 18.0833 11.44 18.25C10.8533 18.4167 10.1867 18.5 9.44 18.5C8.11999 18.5 7.1 18.1833 6.38 17.55C5.66 16.9167 5.3 16.0467 5.3 14.94L5.32 14.54C3.65333 14.3133 2.35 13.6133 1.41 12.44C0.469995 11.2667 0 9.72668 0 7.82C0 6.40666 0.259997 5.19001 0.78 4.17C1.3 3.14999 2.04666 2.37 3.02 1.83C3.99334 1.29 5.14666 1.02 6.48 1.02C7.81334 1.02 8.96333 1.29 9.93 1.83C10.8967 2.37 11.64 3.14999 12.16 4.17C12.68 5.19001 12.94 6.40666 12.94 7.82C12.94 9.75334 12.4633 11.3067 11.51 12.48C10.5567 13.6533 9.23334 14.3467 7.54 14.56C7.59333 15.0267 7.79 15.3533 8.13 15.54C8.47 15.7267 8.94666 15.82 9.56 15.82ZM3.52 7.82C3.52 9.16667 3.77333 10.1867 4.28 10.88C4.78667 11.5733 5.52 11.92 6.48 11.92C7.44 11.92 8.17 11.5733 8.67 10.88C9.17 10.1867 9.42 9.16667 9.42 7.82C9.42 6.47333 9.17 5.45334 8.67 4.76C8.17 4.06666 7.44 3.72 6.48 3.72C5.52 3.72 4.78667 4.06666 4.28 4.76C3.77333 5.45334 3.52 6.47333 3.52 7.82ZM24.975 12.48C25.2283 12.48 25.435 12.4533 25.595 12.4L25.335 14.3C24.9483 14.5133 24.495 14.62 23.975 14.62C22.535 14.62 21.675 14.1067 21.395 13.08C20.795 14.1067 19.6083 14.62 17.835 14.62C16.835 14.62 16.0683 14.4067 15.535 13.98C15.0017 13.5533 14.735 12.9333 14.735 12.12C14.735 11.2667 15.0383 10.5767 15.645 10.05C16.2517 9.52333 17.2483 9.12 18.635 8.84L20.895 8.4V8.04C20.895 7.58666 20.7683 7.22667 20.515 6.96C20.2617 6.69333 19.915 6.56 19.475 6.56C18.9683 6.56 18.555 6.68 18.235 6.92C17.915 7.16 17.7083 7.55333 17.615 8.1L14.855 7.3C15.0283 6.32666 15.5083 5.57 16.295 5.03C17.0817 4.49 18.1417 4.22 19.475 4.22C21.035 4.22 22.2217 4.54 23.035 5.18C23.8483 5.82 24.255 6.77999 24.255 8.06V11.7C24.255 12.22 24.495 12.48 24.975 12.48ZM19.075 12.42C19.5417 12.42 19.9617 12.29 20.335 12.03C20.7083 11.77 20.895 11.4267 20.895 11V10.14L19.275 10.52C18.8483 10.6267 18.545 10.7567 18.365 10.91C18.185 11.0633 18.095 11.28 18.095 11.56C18.095 11.84 18.1817 12.0533 18.355 12.2C18.5283 12.3467 18.7683 12.42 19.075 12.42ZM29.01 3.26C28.3167 3.26 27.8133 3.13 27.5 2.87C27.1867 2.61 27.03 2.2 27.03 1.64C27.03 1.06666 27.1867 0.650001 27.5 0.39C27.8133 0.129999 28.3167 0 29.01 0C29.7033 0 30.2067 0.129999 30.52 0.39C30.8333 0.650001 30.99 1.06666 30.99 1.64C30.99 2.2 30.8333 2.61 30.52 2.87C30.2067 3.13 29.7033 3.26 29.01 3.26ZM30.71 14.42H27.31V4.42H30.71V14.42ZM40.765 13.86C40.4317 14.0867 40.0083 14.27 39.495 14.41C38.9817 14.55 38.465 14.62 37.945 14.62C36.7583 14.62 35.8517 14.3667 35.225 13.86C34.5983 13.3533 34.2783 12.54 34.265 11.42V6.84H32.545V4.42H34.265V2.18L37.665 1.24V4.42H40.665V6.84H37.665V10.86C37.665 11.7533 38.105 12.2 38.985 12.2C39.5317 12.2 40.0117 12.0533 40.425 11.76L40.765 13.86ZM47.38 4.22C49.0467 4.22 50.3433 4.67666 51.27 5.59C52.1967 6.50334 52.66 7.77999 52.66 9.42C52.66 11.06 52.1967 12.3367 51.27 13.25C50.3433 14.1633 49.0467 14.62 47.38 14.62C45.7133 14.62 44.4167 14.1633 43.49 13.25C42.5633 12.3367 42.1 11.06 42.1 9.42C42.1 7.77999 42.5633 6.50334 43.49 5.59C44.4167 4.67666 45.7133 4.22 47.38 4.22ZM47.38 6.64C46.74 6.64 46.2667 6.86 45.96 7.3C45.6533 7.74 45.5 8.44666 45.5 9.42C45.5 10.3933 45.6533 11.1 45.96 11.54C46.2667 11.98 46.74 12.2 47.38 12.2C48.02 12.2 48.4933 11.98 48.8 11.54C49.1067 11.1 49.26 10.3933 49.26 9.42C49.26 8.44666 49.1067 7.74 48.8 7.3C48.4933 6.86 48.02 6.64 47.38 6.64ZM68.015 4.22C69.0283 4.22 69.8517 4.52666 70.485 5.14C71.1183 5.75334 71.435 6.62666 71.435 7.76V14.42H68.035V8.54C68.035 7.39333 67.5817 6.82 66.675 6.82C66.1417 6.82 65.715 7.01333 65.395 7.4C65.075 7.78667 64.915 8.34666 64.915 9.08V14.42H61.515V8.54C61.515 7.39333 61.0617 6.82 60.155 6.82C59.6483 6.82 59.2283 7.01333 58.895 7.4C58.5617 7.78667 58.395 8.36666 58.395 9.14V14.42H54.995V4.42H58.035L58.135 6.34C58.455 5.64666 58.9017 5.12 59.475 4.76C60.0483 4.4 60.7217 4.22 61.495 4.22C62.255 4.22 62.9117 4.39333 63.465 4.74C64.0183 5.08667 64.415 5.58666 64.655 6.24C64.975 5.58666 65.4317 5.08667 66.025 4.74C66.6183 4.39333 67.2817 4.22 68.015 4.22ZM78.99 4.22C80.6567 4.22 81.9533 4.67666 82.88 5.59C83.8067 6.50334 84.27 7.77999 84.27 9.42C84.27 11.06 83.8067 12.3367 82.88 13.25C81.9533 14.1633 80.6567 14.62 78.99 14.62C77.3233 14.62 76.0267 14.1633 75.1 13.25C74.1733 12.3367 73.71 11.06 73.71 9.42C73.71 7.77999 74.1733 6.50334 75.1 5.59C76.0267 4.67666 77.3233 4.22 78.99 4.22ZM78.99 6.64C78.35 6.64 77.8767 6.86 77.57 7.3C77.2633 7.74 77.11 8.44666 77.11 9.42C77.11 10.3933 77.2633 11.1 77.57 11.54C77.8767 11.98 78.35 12.2 78.99 12.2C79.63 12.2 80.1033 11.98 80.41 11.54C80.7167 11.1 80.87 10.3933 80.87 9.42C80.87 8.44666 80.7167 7.74 80.41 7.3C80.1033 6.86 79.63 6.64 78.99 6.64Z" fill="black"/>
</svg>
