<svg width="22" height="22" viewBox="0 0 22 22" fill="none" xmlns="http://www.w3.org/2000/svg">
<path fill-rule="evenodd" clip-rule="evenodd" d="M17 5.5C17 6.32837 16.3284 7 15.5 7C14.6716 7 14 6.32837 14 5.5C14 4.67163 14.6716 4 15.5 4C16.3284 4 17 4.67163 17 5.5ZM19 5.5C19 7.43298 17.433 9 15.5 9C14.598 9 13.7758 8.65881 13.1552 8.09839L8.80273 11L13.1552 13.9016C13.7758 13.3412 14.598 13 15.5 13C17.433 13 19 14.567 19 16.5C19 18.433 17.433 20 15.5 20C13.567 20 12 18.433 12 16.5C12 16.1929 12.0396 15.8949 12.1139 15.6111L7.6095 12.6082C7.0271 13.7321 5.85315 14.5 4.5 14.5C2.56702 14.5 1 12.933 1 11C1 9.06702 2.56702 7.5 4.5 7.5C5.85315 7.5 7.0271 8.26794 7.6095 9.39185L12.1139 6.38892C12.0396 6.1051 12 5.80713 12 5.5C12 3.56702 13.567 2 15.5 2C17.433 2 19 3.56702 19 5.5ZM15.5 18C16.3284 18 17 17.3284 17 16.5C17 15.6716 16.3284 15 15.5 15C14.6716 15 14 15.6716 14 16.5C14 17.3284 14.6716 18 15.5 18ZM6 11C6 11.8284 5.32837 12.5 4.5 12.5C3.67163 12.5 3 11.8284 3 11C3 10.1716 3.67163 9.5 4.5 9.5C5.32837 9.5 6 10.1716 6 11Z" fill="black"/>
<mask id="mask0" style="mask-type:alpha" maskUnits="userSpaceOnUse" x="1" y="2" width="18" height="18">
<path fill-rule="evenodd" clip-rule="evenodd" d="M17 5.5C17 6.32837 16.3284 7 15.5 7C14.6716 7 14 6.32837 14 5.5C14 4.67163 14.6716 4 15.5 4C16.3284 4 17 4.67163 17 5.5ZM19 5.5C19 7.43298 17.433 9 15.5 9C14.598 9 13.7758 8.65881 13.1552 8.09839L8.80273 11L13.1552 13.9016C13.7758 13.3412 14.598 13 15.5 13C17.433 13 19 14.567 19 16.5C19 18.433 17.433 20 15.5 20C13.567 20 12 18.433 12 16.5C12 16.1929 12.0396 15.8949 12.1139 15.6111L7.6095 12.6082C7.0271 13.7321 5.85315 14.5 4.5 14.5C2.56702 14.5 1 12.933 1 11C1 9.06702 2.56702 7.5 4.5 7.5C5.85315 7.5 7.0271 8.26794 7.6095 9.39185L12.1139 6.38892C12.0396 6.1051 12 5.80713 12 5.5C12 3.56702 13.567 2 15.5 2C17.433 2 19 3.56702 19 5.5ZM15.5 18C16.3284 18 17 17.3284 17 16.5C17 15.6716 16.3284 15 15.5 15C14.6716 15 14 15.6716 14 16.5C14 17.3284 14.6716 18 15.5 18ZM6 11C6 11.8284 5.32837 12.5 4.5 12.5C3.67163 12.5 3 11.8284 3 11C3 10.1716 3.67163 9.5 4.5 9.5C5.32837 9.5 6 10.1716 6 11Z" fill="white"/>
</mask>
<g mask="url(#mask0)">
<rect width="22" height="22" fill="white"/>
</g>
</svg>
